<?xml version="1.0" encoding="UTF-8"?><svg xmlns="http://www.w3.org/2000/svg" xmlns:xlink="http://www.w3.org/1999/xlink" fill-opacity="1" color-rendering="auto" color-interpolation="auto" text-rendering="auto" stroke="black" stroke-linecap="square" width="645" stroke-miterlimit="10" shape-rendering="auto" stroke-opacity="1" fill="black" stroke-dasharray="none" font-weight="normal" stroke-width="1" height="180" font-family="'Dialog'" font-style="normal" stroke-linejoin="miter" font-size="12px" stroke-dashoffset="0" image-rendering="auto">
  <!--Generated by ySVG 2.5-->
  <defs id="genericDefs"/>
  <g>
    <defs id="defs1">
      <clipPath clipPathUnits="userSpaceOnUse" id="clipPath1">
        <path d="M0 0 L645 0 L645 180 L0 180 L0 0 Z"/>
      </clipPath>
      <clipPath clipPathUnits="userSpaceOnUse" id="clipPath2">
        <path d="M180 150 L825 150 L825 330 L180 330 L180 150 Z"/>
      </clipPath>
    </defs>
    <g fill="white" text-rendering="geometricPrecision" shape-rendering="geometricPrecision" transform="translate(-180,-150)" stroke="white">
      <rect x="180" width="645" height="180" y="150" clip-path="url(#clipPath2)" stroke="none"/>
    </g>
    <g fill="white" text-rendering="geometricPrecision" shape-rendering="geometricPrecision" transform="matrix(1,0,0,1,-180,-150)" stroke="white">
      <circle r="15" clip-path="url(#clipPath2)" cx="210" cy="240" stroke="none"/>
    </g>
    <g text-rendering="geometricPrecision" stroke-miterlimit="1.45" stroke-width="3" shape-rendering="geometricPrecision" transform="matrix(1,0,0,1,-180,-150)" stroke-linecap="butt">
      <circle fill="none" r="15" clip-path="url(#clipPath2)" cx="210" cy="240"/>
    </g>
    <g fill="white" text-rendering="geometricPrecision" shape-rendering="geometricPrecision" transform="matrix(1,0,0,1,-180,-150)" stroke="white">
      <circle r="15" clip-path="url(#clipPath2)" cx="300" cy="240" stroke="none"/>
    </g>
    <g text-rendering="geometricPrecision" stroke-miterlimit="1.45" stroke-width="3" shape-rendering="geometricPrecision" transform="matrix(1,0,0,1,-180,-150)" stroke-linecap="butt">
      <circle fill="none" r="15" clip-path="url(#clipPath2)" cx="300" cy="240"/>
    </g>
    <g fill="white" text-rendering="geometricPrecision" shape-rendering="geometricPrecision" transform="matrix(1,0,0,1,-180,-150)" stroke="white">
      <circle r="15" clip-path="url(#clipPath2)" cx="390" cy="240" stroke="none"/>
    </g>
    <g text-rendering="geometricPrecision" stroke-miterlimit="1.45" stroke-width="3" shape-rendering="geometricPrecision" transform="matrix(1,0,0,1,-180,-150)" stroke-linecap="butt">
      <circle fill="none" r="15" clip-path="url(#clipPath2)" cx="390" cy="240"/>
    </g>
    <g fill="white" text-rendering="geometricPrecision" shape-rendering="geometricPrecision" transform="matrix(1,0,0,1,-180,-150)" stroke="white">
      <circle r="15" clip-path="url(#clipPath2)" cx="570" cy="180" stroke="none"/>
    </g>
    <g text-rendering="geometricPrecision" stroke-miterlimit="1.45" stroke-width="3" shape-rendering="geometricPrecision" transform="matrix(1,0,0,1,-180,-150)" stroke-linecap="butt">
      <circle fill="none" r="15" clip-path="url(#clipPath2)" cx="570" cy="180"/>
    </g>
    <g fill="white" text-rendering="geometricPrecision" shape-rendering="geometricPrecision" transform="matrix(1,0,0,1,-180,-150)" stroke="white">
      <circle r="15" clip-path="url(#clipPath2)" cx="660" cy="180" stroke="none"/>
    </g>
    <g text-rendering="geometricPrecision" stroke-miterlimit="1.45" stroke-width="3" shape-rendering="geometricPrecision" transform="matrix(1,0,0,1,-180,-150)" stroke-linecap="butt">
      <circle fill="none" r="15" clip-path="url(#clipPath2)" cx="660" cy="180"/>
    </g>
    <g fill="white" text-rendering="geometricPrecision" shape-rendering="geometricPrecision" transform="matrix(1,0,0,1,-180,-150)" stroke="white">
      <circle r="15" clip-path="url(#clipPath2)" cx="480" cy="180" stroke="none"/>
    </g>
    <g text-rendering="geometricPrecision" stroke-miterlimit="1.45" stroke-width="3" shape-rendering="geometricPrecision" transform="matrix(1,0,0,1,-180,-150)" stroke-linecap="butt">
      <circle fill="none" r="15" clip-path="url(#clipPath2)" cx="480" cy="180"/>
    </g>
    <g fill="white" text-rendering="geometricPrecision" shape-rendering="geometricPrecision" transform="matrix(1,0,0,1,-180,-150)" stroke="white">
      <rect x="510" width="120" height="30" y="225" clip-path="url(#clipPath2)" stroke="none"/>
    </g>
    <g stroke-linecap="butt" transform="matrix(1,0,0,1,-180,-150)" fill="rgb(51,102,255)" text-rendering="geometricPrecision" shape-rendering="geometricPrecision" stroke="rgb(51,102,255)" stroke-width="2" stroke-miterlimit="1.45">
      <rect fill="none" x="510" width="120" height="30" y="225" clip-path="url(#clipPath2)"/>
    </g>
    <g text-rendering="geometricPrecision" stroke-miterlimit="1.45" shape-rendering="geometricPrecision" font-family="sans-serif" transform="matrix(1,0,0,1,-180,-150)" stroke-linecap="butt">
      <text x="549.9844" xml:space="preserve" y="244.5352" clip-path="url(#clipPath2)" stroke="none">master</text>
    </g>
    <g fill="white" text-rendering="geometricPrecision" shape-rendering="geometricPrecision" transform="matrix(1,0,0,1,-180,-150)" stroke="white">
      <circle r="15" clip-path="url(#clipPath2)" cx="480" cy="240" stroke="none"/>
    </g>
    <g text-rendering="geometricPrecision" stroke-miterlimit="1.45" stroke-width="3" shape-rendering="geometricPrecision" transform="matrix(1,0,0,1,-180,-150)" stroke-linecap="butt">
      <circle fill="none" r="15" clip-path="url(#clipPath2)" cx="480" cy="240"/>
    </g>
    <g fill="white" text-rendering="geometricPrecision" shape-rendering="geometricPrecision" transform="matrix(1,0,0,1,-180,-150)" stroke="white">
      <rect x="690" width="120" height="30" y="165" clip-path="url(#clipPath2)" stroke="none"/>
    </g>
    <g stroke-linecap="butt" transform="matrix(1,0,0,1,-180,-150)" fill="rgb(51,153,102)" text-rendering="geometricPrecision" shape-rendering="geometricPrecision" stroke="rgb(51,153,102)" stroke-width="2" stroke-miterlimit="1.45">
      <rect fill="none" x="690" width="120" height="30" y="165" clip-path="url(#clipPath2)"/>
    </g>
    <g text-rendering="geometricPrecision" stroke-miterlimit="1.45" shape-rendering="geometricPrecision" font-family="sans-serif" transform="matrix(1,0,0,1,-180,-150)" stroke-linecap="butt">
      <text x="739.1455" xml:space="preserve" y="184.5352" clip-path="url(#clipPath2)" stroke="none">rwd</text>
    </g>
    <g fill="rgb(255,204,0)" text-rendering="geometricPrecision" shape-rendering="geometricPrecision" transform="matrix(1,0,0,1,-180,-150)" stroke="rgb(255,204,0)">
      <path d="M630 239.5 L633.4442 232.8149 L640.6066 235.1066 L638.3149 227.9442 L645 224.5 L638.3149 221.0558 L640.6066 213.8934 L633.4442 216.1851 L630 209.5 L626.5558 216.1851 L619.3934 213.8934 L621.6851 221.0558 L615 224.5 L621.6851 227.9442 L619.3934 235.1066 L626.5558 232.8149 Z" fill-rule="evenodd" clip-path="url(#clipPath2)" stroke="none"/>
    </g>
    <g text-rendering="geometricPrecision" stroke-miterlimit="1.45" shape-rendering="geometricPrecision" transform="matrix(1,0,0,1,-180,-150)" stroke-linecap="butt">
      <path fill="none" d="M630 239.5 L633.4442 232.8149 L640.6066 235.1066 L638.3149 227.9442 L645 224.5 L638.3149 221.0558 L640.6066 213.8934 L633.4442 216.1851 L630 209.5 L626.5558 216.1851 L619.3934 213.8934 L621.6851 221.0558 L615 224.5 L621.6851 227.9442 L619.3934 235.1066 L626.5558 232.8149 Z" fill-rule="evenodd" clip-path="url(#clipPath2)"/>
    </g>
    <g fill="white" text-rendering="geometricPrecision" shape-rendering="geometricPrecision" transform="matrix(1,0,0,1,-180,-150)" stroke="white">
      <circle r="15" clip-path="url(#clipPath2)" cx="570" cy="300" stroke="none"/>
    </g>
    <g text-rendering="geometricPrecision" stroke-miterlimit="1.45" stroke-width="3" shape-rendering="geometricPrecision" transform="matrix(1,0,0,1,-180,-150)" stroke-linecap="butt">
      <circle fill="none" r="15" clip-path="url(#clipPath2)" cx="570" cy="300"/>
    </g>
    <g fill="white" text-rendering="geometricPrecision" shape-rendering="geometricPrecision" transform="matrix(1,0,0,1,-180,-150)" stroke="white">
      <circle r="15" clip-path="url(#clipPath2)" cx="390" cy="300" stroke="none"/>
    </g>
    <g text-rendering="geometricPrecision" stroke-miterlimit="1.45" stroke-width="3" shape-rendering="geometricPrecision" transform="matrix(1,0,0,1,-180,-150)" stroke-linecap="butt">
      <circle fill="none" r="15" clip-path="url(#clipPath2)" cx="390" cy="300"/>
    </g>
    <g fill="white" text-rendering="geometricPrecision" shape-rendering="geometricPrecision" transform="matrix(1,0,0,1,-180,-150)" stroke="white">
      <circle r="15" clip-path="url(#clipPath2)" cx="480" cy="300" stroke="none"/>
    </g>
    <g text-rendering="geometricPrecision" stroke-miterlimit="1.45" stroke-width="3" shape-rendering="geometricPrecision" transform="matrix(1,0,0,1,-180,-150)" stroke-linecap="butt">
      <circle fill="none" r="15" clip-path="url(#clipPath2)" cx="480" cy="300"/>
    </g>
    <g fill="white" text-rendering="geometricPrecision" shape-rendering="geometricPrecision" transform="matrix(1,0,0,1,-180,-150)" stroke="white">
      <rect x="600" width="120" height="30" y="285" clip-path="url(#clipPath2)" stroke="none"/>
    </g>
    <g stroke-linecap="butt" transform="matrix(1,0,0,1,-180,-150)" fill="rgb(255,153,0)" text-rendering="geometricPrecision" shape-rendering="geometricPrecision" stroke="rgb(255,153,0)" stroke-width="2" stroke-miterlimit="1.45">
      <rect fill="none" x="600" width="120" height="30" y="285" clip-path="url(#clipPath2)"/>
    </g>
    <g text-rendering="geometricPrecision" stroke-miterlimit="1.45" shape-rendering="geometricPrecision" font-family="sans-serif" transform="matrix(1,0,0,1,-180,-150)" stroke-linecap="butt">
      <text x="618.9141" xml:space="preserve" y="304.5352" clip-path="url(#clipPath2)" stroke="none">fix/navigation</text>
    </g>
    <g stroke-linecap="butt" transform="matrix(1,0,0,1,-180,-150)" fill="rgb(51,102,255)" text-rendering="geometricPrecision" shape-rendering="geometricPrecision" stroke="rgb(51,102,255)" stroke-width="3" stroke-miterlimit="1.45">
      <path fill="none" d="M225 240 L271.25 240" clip-path="url(#clipPath2)"/>
      <path d="M285 240 L270 232.5 L270 247.5 Z" clip-path="url(#clipPath2)" stroke="none"/>
      <path fill="none" d="M315 240 L361.25 240" clip-path="url(#clipPath2)"/>
      <path d="M375 240 L360 232.5 L360 247.5 Z" clip-path="url(#clipPath2)" stroke="none"/>
      <path fill="none" d="M585 180 L631.25 180" clip-path="url(#clipPath2)" stroke="rgb(51,153,102)"/>
      <path fill="rgb(51,153,102)" d="M645 180 L630 172.5 L630 187.5 Z" clip-path="url(#clipPath2)" stroke="none"/>
      <path fill="none" d="M402.4807 231.6795 L456.0786 195.9476" clip-path="url(#clipPath2)" stroke="rgb(51,153,102)"/>
      <path fill="rgb(51,153,102)" d="M467.5193 188.3205 L450.8783 190.4006 L459.1988 202.8814 Z" clip-path="url(#clipPath2)" stroke="none"/>
      <path fill="none" d="M495 180 L541.25 180" clip-path="url(#clipPath2)" stroke="rgb(51,153,102)"/>
      <path fill="rgb(51,153,102)" d="M555 180 L540 172.5 L540 187.5 Z" clip-path="url(#clipPath2)" stroke="none"/>
      <path fill="none" d="M405 240 L451.25 240" clip-path="url(#clipPath2)"/>
      <path d="M465 240 L450 232.5 L450 247.5 Z" clip-path="url(#clipPath2)" stroke="none"/>
      <path fill="none" d="M312.4807 248.3205 L366.0786 284.0524" clip-path="url(#clipPath2)" stroke="rgb(255,153,0)"/>
      <path fill="rgb(255,153,0)" d="M377.5193 291.6795 L369.1988 277.1186 L360.8783 289.5994 Z" clip-path="url(#clipPath2)" stroke="none"/>
      <path fill="none" d="M405 300 L451.25 300" clip-path="url(#clipPath2)" stroke="rgb(255,153,0)"/>
      <path fill="rgb(255,153,0)" d="M465 300 L450 292.5 L450 307.5 Z" clip-path="url(#clipPath2)" stroke="none"/>
      <path fill="none" d="M495 300 L541.25 300" clip-path="url(#clipPath2)" stroke="rgb(255,153,0)"/>
      <path fill="rgb(255,153,0)" d="M555 300 L540 292.5 L540 307.5 Z" clip-path="url(#clipPath2)" stroke="none"/>
    </g>
  </g>
</svg>
