<?xml version="1.0" encoding="UTF-8"?><svg xmlns="http://www.w3.org/2000/svg" xmlns:xlink="http://www.w3.org/1999/xlink" fill-opacity="1" color-rendering="auto" color-interpolation="auto" text-rendering="auto" stroke="black" stroke-linecap="square" width="1382" stroke-miterlimit="10" shape-rendering="auto" stroke-opacity="1" fill="black" stroke-dasharray="none" font-weight="normal" stroke-width="1" height="332" font-family="'Dialog'" font-style="normal" stroke-linejoin="miter" font-size="12px" stroke-dashoffset="0" image-rendering="auto">
  <!--Generated by ySVG 2.5-->
  <defs id="genericDefs"/>
  <g>
    <defs id="defs1">
      <clipPath clipPathUnits="userSpaceOnUse" id="clipPath1">
        <path d="M0 0 L1382 0 L1382 332 L0 332 L0 0 Z"/>
      </clipPath>
      <clipPath clipPathUnits="userSpaceOnUse" id="clipPath2">
        <path d="M187 157 L878 157 L878 323 L187 323 L187 157 Z"/>
      </clipPath>
    </defs>
    <g fill="white" text-rendering="geometricPrecision" shape-rendering="geometricPrecision" transform="matrix(2,0,0,2,-374,-314)" stroke="white">
      <circle r="15" clip-path="url(#clipPath2)" cx="210" cy="240" stroke="none"/>
    </g>
    <g text-rendering="geometricPrecision" stroke-miterlimit="1.45" stroke-width="3" shape-rendering="geometricPrecision" transform="matrix(2,0,0,2,-374,-314)" stroke-linecap="butt">
      <circle fill="none" r="15" clip-path="url(#clipPath2)" cx="210" cy="240"/>
    </g>
    <g fill="white" text-rendering="geometricPrecision" shape-rendering="geometricPrecision" transform="matrix(2,0,0,2,-374,-314)" stroke="white">
      <circle r="15" clip-path="url(#clipPath2)" cx="300" cy="240" stroke="none"/>
    </g>
    <g text-rendering="geometricPrecision" stroke-miterlimit="1.45" stroke-width="3" shape-rendering="geometricPrecision" transform="matrix(2,0,0,2,-374,-314)" stroke-linecap="butt">
      <circle fill="none" r="15" clip-path="url(#clipPath2)" cx="300" cy="240"/>
    </g>
    <g fill="white" text-rendering="geometricPrecision" shape-rendering="geometricPrecision" transform="matrix(2,0,0,2,-374,-314)" stroke="white">
      <circle r="15" clip-path="url(#clipPath2)" cx="390" cy="240" stroke="none"/>
    </g>
    <g text-rendering="geometricPrecision" stroke-miterlimit="1.45" stroke-width="3" shape-rendering="geometricPrecision" transform="matrix(2,0,0,2,-374,-314)" stroke-linecap="butt">
      <circle fill="none" r="15" clip-path="url(#clipPath2)" cx="390" cy="240"/>
    </g>
    <g fill="white" text-rendering="geometricPrecision" shape-rendering="geometricPrecision" transform="matrix(2,0,0,2,-374,-314)" stroke="white">
      <circle r="15" clip-path="url(#clipPath2)" cx="480" cy="240" stroke="none"/>
    </g>
    <g text-rendering="geometricPrecision" stroke-miterlimit="1.45" stroke-width="3" shape-rendering="geometricPrecision" transform="matrix(2,0,0,2,-374,-314)" stroke-linecap="butt">
      <circle fill="none" r="15" clip-path="url(#clipPath2)" cx="480" cy="240"/>
    </g>
    <g fill="white" text-rendering="geometricPrecision" shape-rendering="geometricPrecision" transform="matrix(2,0,0,2,-374,-314)" stroke="white">
      <circle r="15" clip-path="url(#clipPath2)" cx="570" cy="240" stroke="none"/>
    </g>
    <g text-rendering="geometricPrecision" stroke-miterlimit="1.45" stroke-width="3" shape-rendering="geometricPrecision" transform="matrix(2,0,0,2,-374,-314)" stroke-linecap="butt">
      <circle fill="none" r="15" clip-path="url(#clipPath2)" cx="570" cy="240"/>
    </g>
    <g fill="white" text-rendering="geometricPrecision" shape-rendering="geometricPrecision" transform="matrix(2,0,0,2,-374,-314)" stroke="white">
      <circle r="15" clip-path="url(#clipPath2)" cx="660" cy="240" stroke="none"/>
    </g>
    <g text-rendering="geometricPrecision" stroke-miterlimit="1.45" stroke-width="3" shape-rendering="geometricPrecision" transform="matrix(2,0,0,2,-374,-314)" stroke-linecap="butt">
      <circle fill="none" r="15" clip-path="url(#clipPath2)" cx="660" cy="240"/>
    </g>
    <g fill="white" text-rendering="geometricPrecision" shape-rendering="geometricPrecision" transform="matrix(2,0,0,2,-374,-314)" stroke="white">
      <circle r="15" clip-path="url(#clipPath2)" cx="750" cy="240" stroke="none"/>
    </g>
    <g stroke-linecap="butt" transform="matrix(2,0,0,2,-374,-314)" fill="rgb(153,153,153)" text-rendering="geometricPrecision" shape-rendering="geometricPrecision" stroke="rgb(153,153,153)" stroke-width="3" stroke-miterlimit="1.45">
      <circle fill="none" r="15" clip-path="url(#clipPath2)" cx="750" cy="240"/>
    </g>
    <g fill="rgb(204,204,204)" text-rendering="geometricPrecision" shape-rendering="geometricPrecision" transform="matrix(2,0,0,2,-374,-314)" stroke="rgb(204,204,204)">
      <rect x="210" width="120" height="30" y="165" clip-path="url(#clipPath2)" stroke="none"/>
    </g>
    <g text-rendering="geometricPrecision" stroke-miterlimit="1.45" shape-rendering="geometricPrecision" font-family="sans-serif" transform="matrix(2,0,0,2,-374,-314)" stroke-linecap="butt">
      <text x="240.9492" xml:space="preserve" y="184.5352" clip-path="url(#clipPath2)" stroke="none">Naissance</text>
    </g>
    <g fill="rgb(204,204,204)" text-rendering="geometricPrecision" shape-rendering="geometricPrecision" transform="matrix(2,0,0,2,-374,-314)" stroke="rgb(204,204,204)">
      <rect x="390" width="120" height="30" y="165" clip-path="url(#clipPath2)" stroke="none"/>
    </g>
    <g text-rendering="geometricPrecision" stroke-miterlimit="1.45" shape-rendering="geometricPrecision" font-family="sans-serif" transform="matrix(2,0,0,2,-374,-314)" stroke-linecap="butt">
      <text x="415.6113" xml:space="preserve" y="184.5352" clip-path="url(#clipPath2)" stroke="none">Petite soeur</text>
    </g>
    <g fill="rgb(204,204,204)" text-rendering="geometricPrecision" shape-rendering="geometricPrecision" transform="matrix(2,0,0,2,-374,-314)" stroke="rgb(204,204,204)">
      <rect x="570" width="120" height="30" y="165" clip-path="url(#clipPath2)" stroke="none"/>
    </g>
    <g text-rendering="geometricPrecision" stroke-miterlimit="1.45" shape-rendering="geometricPrecision" font-family="sans-serif" transform="matrix(2,0,0,2,-374,-314)" stroke-linecap="butt">
      <text x="610.4912" xml:space="preserve" y="184.5352" clip-path="url(#clipPath2)" stroke="none">Permis</text>
    </g>
    <g fill="rgb(204,204,204)" text-rendering="geometricPrecision" shape-rendering="geometricPrecision" transform="matrix(2,0,0,2,-374,-314)" stroke="rgb(204,204,204)">
      <rect x="300" width="120" height="30" y="285" clip-path="url(#clipPath2)" stroke="none"/>
    </g>
    <g text-rendering="geometricPrecision" stroke-miterlimit="1.45" shape-rendering="geometricPrecision" font-family="sans-serif" transform="matrix(2,0,0,2,-374,-314)" stroke-linecap="butt">
      <text x="322.6465" xml:space="preserve" y="304.5352" clip-path="url(#clipPath2)" stroke="none">Premiers pas</text>
    </g>
    <g fill="rgb(204,204,204)" text-rendering="geometricPrecision" shape-rendering="geometricPrecision" transform="matrix(2,0,0,2,-374,-314)" stroke="rgb(204,204,204)">
      <rect x="480" width="120" height="30" y="285" clip-path="url(#clipPath2)" stroke="none"/>
    </g>
    <g text-rendering="geometricPrecision" stroke-miterlimit="1.45" shape-rendering="geometricPrecision" font-family="sans-serif" transform="matrix(2,0,0,2,-374,-314)" stroke-linecap="butt">
      <text x="496.1777" xml:space="preserve" y="304.5352" clip-path="url(#clipPath2)" stroke="none">Entrée au lycée</text>
    </g>
    <g fill="rgb(204,204,204)" text-rendering="geometricPrecision" shape-rendering="geometricPrecision" transform="matrix(2,0,0,2,-374,-314)" stroke="rgb(204,204,204)">
      <rect x="660" width="120" height="30" y="285" clip-path="url(#clipPath2)" stroke="none"/>
    </g>
    <g text-rendering="geometricPrecision" stroke-miterlimit="1.45" shape-rendering="geometricPrecision" font-family="sans-serif" transform="matrix(2,0,0,2,-374,-314)" stroke-linecap="butt">
      <text x="677.9531" xml:space="preserve" y="304.5352" clip-path="url(#clipPath2)" stroke="none">Premier travail</text>
    </g>
    <g fill="rgb(204,204,204)" text-rendering="geometricPrecision" shape-rendering="geometricPrecision" transform="matrix(2,0,0,2,-374,-314)" stroke="rgb(204,204,204)">
      <rect x="750" width="120" height="30" y="165" clip-path="url(#clipPath2)" stroke="none"/>
    </g>
    <g text-rendering="geometricPrecision" stroke-miterlimit="1.45" shape-rendering="geometricPrecision" font-family="sans-serif" transform="matrix(2,0,0,2,-374,-314)" stroke-linecap="butt">
      <text x="802.4062" xml:space="preserve" y="184.5352" clip-path="url(#clipPath2)" stroke="none">???</text>
    </g>
    <g stroke-linecap="butt" transform="matrix(2,0,0,2,-374,-314)" fill="rgb(51,102,255)" text-rendering="geometricPrecision" shape-rendering="geometricPrecision" stroke="rgb(51,102,255)" stroke-width="3" stroke-miterlimit="1.45">
      <path fill="none" d="M225 240 L271.25 240" clip-path="url(#clipPath2)"/>
      <path d="M285 240 L270 232.5 L270 247.5 Z" clip-path="url(#clipPath2)" stroke="none"/>
      <path fill="none" d="M315 240 L361.25 240" clip-path="url(#clipPath2)"/>
      <path d="M375 240 L360 232.5 L360 247.5 Z" clip-path="url(#clipPath2)" stroke="none"/>
      <path fill="none" d="M405 240 L451.25 240" clip-path="url(#clipPath2)"/>
      <path d="M465 240 L450 232.5 L450 247.5 Z" clip-path="url(#clipPath2)" stroke="none"/>
      <path fill="none" d="M495 240 L541.25 240" clip-path="url(#clipPath2)"/>
      <path d="M555 240 L540 232.5 L540 247.5 Z" clip-path="url(#clipPath2)" stroke="none"/>
      <path fill="none" d="M585 240 L631.25 240" clip-path="url(#clipPath2)"/>
      <path d="M645 240 L630 232.5 L630 247.5 Z" clip-path="url(#clipPath2)" stroke="none"/>
      <path fill="none" stroke-dasharray="18,6" d="M675 240 L721.25 240" clip-path="url(#clipPath2)" stroke="gray"/>
      <path fill="gray" stroke-dasharray="18,6" d="M735 240 L720 232.5 L720 247.5 Z" clip-path="url(#clipPath2)" stroke="none"/>
    </g>
    <g stroke-linecap="round" transform="matrix(2,0,0,2,-374,-314)" fill="silver" text-rendering="geometricPrecision" shape-rendering="geometricPrecision" stroke-dasharray="8,6,0,6" stroke="silver" stroke-width="2" stroke-miterlimit="1.45">
      <path fill="none" d="M220.6066 229.3934 L255 195" clip-path="url(#clipPath2)"/>
      <path fill="none" d="M400.6066 229.3934 L435 195" clip-path="url(#clipPath2)"/>
      <path fill="none" d="M580.6066 229.3934 L615 195" clip-path="url(#clipPath2)"/>
      <path fill="none" d="M310.6066 250.6066 L345 285" clip-path="url(#clipPath2)"/>
      <path fill="none" d="M490.6066 250.6066 L525 285" clip-path="url(#clipPath2)"/>
      <path fill="none" d="M670.6066 250.6066 L705 285" clip-path="url(#clipPath2)"/>
      <path fill="none" d="M760.6066 229.3934 L795 195" clip-path="url(#clipPath2)"/>
    </g>
  </g>
</svg>
