<?xml version="1.0" encoding="UTF-8"?><svg xmlns="http://www.w3.org/2000/svg" xmlns:xlink="http://www.w3.org/1999/xlink" fill-opacity="1" color-rendering="auto" color-interpolation="auto" text-rendering="auto" stroke="black" stroke-linecap="square" width="750" stroke-miterlimit="10" shape-rendering="auto" stroke-opacity="1" fill="black" stroke-dasharray="none" font-weight="normal" stroke-width="1" height="120" font-family="'Dialog'" font-style="normal" stroke-linejoin="miter" font-size="12px" stroke-dashoffset="0" image-rendering="auto">
  <!--Generated by ySVG 2.5-->
  <defs id="genericDefs"/>
  <g>
    <defs id="defs1">
      <clipPath clipPathUnits="userSpaceOnUse" id="clipPath1">
        <path d="M0 0 L750 0 L750 120 L0 120 L0 0 Z"/>
      </clipPath>
      <clipPath clipPathUnits="userSpaceOnUse" id="clipPath2">
        <path d="M180 150 L930 150 L930 270 L180 270 L180 150 Z"/>
      </clipPath>
    </defs>
    <g fill="white" text-rendering="geometricPrecision" shape-rendering="geometricPrecision" transform="translate(-180,-150)" stroke="white">
      <rect x="180" width="750" height="120" y="150" clip-path="url(#clipPath2)" stroke="none"/>
    </g>
    <g fill="white" text-rendering="geometricPrecision" shape-rendering="geometricPrecision" transform="matrix(1,0,0,1,-180,-150)" stroke="white">
      <circle r="15" clip-path="url(#clipPath2)" cx="210" cy="240" stroke="none"/>
    </g>
    <g text-rendering="geometricPrecision" stroke-miterlimit="1.45" stroke-width="3" shape-rendering="geometricPrecision" transform="matrix(1,0,0,1,-180,-150)" stroke-linecap="butt">
      <circle fill="none" r="15" clip-path="url(#clipPath2)" cx="210" cy="240"/>
    </g>
    <g fill="white" text-rendering="geometricPrecision" shape-rendering="geometricPrecision" transform="matrix(1,0,0,1,-180,-150)" stroke="white">
      <circle r="15" clip-path="url(#clipPath2)" cx="300" cy="240" stroke="none"/>
    </g>
    <g text-rendering="geometricPrecision" stroke-miterlimit="1.45" stroke-width="3" shape-rendering="geometricPrecision" transform="matrix(1,0,0,1,-180,-150)" stroke-linecap="butt">
      <circle fill="none" r="15" clip-path="url(#clipPath2)" cx="300" cy="240"/>
    </g>
    <g fill="white" text-rendering="geometricPrecision" shape-rendering="geometricPrecision" transform="matrix(1,0,0,1,-180,-150)" stroke="white">
      <circle r="15" clip-path="url(#clipPath2)" cx="390" cy="240" stroke="none"/>
    </g>
    <g text-rendering="geometricPrecision" stroke-miterlimit="1.45" stroke-width="3" shape-rendering="geometricPrecision" transform="matrix(1,0,0,1,-180,-150)" stroke-linecap="butt">
      <circle fill="none" r="15" clip-path="url(#clipPath2)" cx="390" cy="240"/>
    </g>
    <g fill="white" text-rendering="geometricPrecision" shape-rendering="geometricPrecision" transform="matrix(1,0,0,1,-180,-150)" stroke="white">
      <circle r="15" clip-path="url(#clipPath2)" cx="570" cy="180" stroke="none"/>
    </g>
    <g text-rendering="geometricPrecision" stroke-miterlimit="1.45" stroke-width="3" shape-rendering="geometricPrecision" transform="matrix(1,0,0,1,-180,-150)" stroke-linecap="butt">
      <circle fill="none" r="15" clip-path="url(#clipPath2)" cx="570" cy="180"/>
    </g>
    <g fill="white" text-rendering="geometricPrecision" shape-rendering="geometricPrecision" transform="matrix(1,0,0,1,-180,-150)" stroke="white">
      <circle r="15" clip-path="url(#clipPath2)" cx="660" cy="180" stroke="none"/>
    </g>
    <g text-rendering="geometricPrecision" stroke-miterlimit="1.45" stroke-width="3" shape-rendering="geometricPrecision" transform="matrix(1,0,0,1,-180,-150)" stroke-linecap="butt">
      <circle fill="none" r="15" clip-path="url(#clipPath2)" cx="660" cy="180"/>
    </g>
    <g fill="white" text-rendering="geometricPrecision" shape-rendering="geometricPrecision" transform="matrix(1,0,0,1,-180,-150)" stroke="white">
      <circle r="15" clip-path="url(#clipPath2)" cx="480" cy="180" stroke="none"/>
    </g>
    <g text-rendering="geometricPrecision" stroke-miterlimit="1.45" stroke-width="3" shape-rendering="geometricPrecision" transform="matrix(1,0,0,1,-180,-150)" stroke-linecap="butt">
      <circle fill="none" r="15" clip-path="url(#clipPath2)" cx="480" cy="180"/>
    </g>
    <g fill="white" text-rendering="geometricPrecision" shape-rendering="geometricPrecision" transform="matrix(1,0,0,1,-180,-150)" stroke="white">
      <rect x="780" width="120" height="30" y="225" clip-path="url(#clipPath2)" stroke="none"/>
    </g>
    <g stroke-linecap="butt" transform="matrix(1,0,0,1,-180,-150)" fill="rgb(51,102,255)" text-rendering="geometricPrecision" shape-rendering="geometricPrecision" stroke="rgb(51,102,255)" stroke-width="2" stroke-miterlimit="1.45">
      <rect fill="none" x="780" width="120" height="30" y="225" clip-path="url(#clipPath2)"/>
    </g>
    <g text-rendering="geometricPrecision" stroke-miterlimit="1.45" shape-rendering="geometricPrecision" font-family="sans-serif" transform="matrix(1,0,0,1,-180,-150)" stroke-linecap="butt">
      <text x="819.9844" xml:space="preserve" y="244.5352" clip-path="url(#clipPath2)" stroke="none">master</text>
    </g>
    <g fill="white" text-rendering="geometricPrecision" shape-rendering="geometricPrecision" transform="matrix(1,0,0,1,-180,-150)" stroke="white">
      <circle r="15" clip-path="url(#clipPath2)" cx="480" cy="240" stroke="none"/>
    </g>
    <g text-rendering="geometricPrecision" stroke-miterlimit="1.45" stroke-width="3" shape-rendering="geometricPrecision" transform="matrix(1,0,0,1,-180,-150)" stroke-linecap="butt">
      <circle fill="none" r="15" clip-path="url(#clipPath2)" cx="480" cy="240"/>
    </g>
    <g fill="white" text-rendering="geometricPrecision" shape-rendering="geometricPrecision" transform="matrix(1,0,0,1,-180,-150)" stroke="white">
      <rect x="690" width="120" height="30" y="165" clip-path="url(#clipPath2)" stroke="none"/>
    </g>
    <g stroke-linecap="butt" transform="matrix(1,0,0,1,-180,-150)" fill="rgb(51,153,102)" text-rendering="geometricPrecision" shape-rendering="geometricPrecision" stroke="rgb(51,153,102)" stroke-width="2" stroke-miterlimit="1.45">
      <rect fill="none" x="690" width="120" height="30" y="165" clip-path="url(#clipPath2)"/>
    </g>
    <g text-rendering="geometricPrecision" stroke-miterlimit="1.45" shape-rendering="geometricPrecision" font-family="sans-serif" transform="matrix(1,0,0,1,-180,-150)" stroke-linecap="butt">
      <text x="739.1455" xml:space="preserve" y="184.5352" clip-path="url(#clipPath2)" stroke="none">rwd</text>
    </g>
    <g fill="rgb(255,204,0)" text-rendering="geometricPrecision" shape-rendering="geometricPrecision" transform="matrix(1,0,0,1,-180,-150)" stroke="rgb(255,204,0)">
      <path d="M900 239.5 L903.4442 232.8149 L910.6066 235.1066 L908.3149 227.9442 L915 224.5 L908.3149 221.0558 L910.6066 213.8934 L903.4442 216.1851 L900 209.5 L896.5558 216.1851 L889.3934 213.8934 L891.6851 221.0558 L885 224.5 L891.6851 227.9442 L889.3934 235.1066 L896.5558 232.8149 Z" fill-rule="evenodd" clip-path="url(#clipPath2)" stroke="none"/>
    </g>
    <g text-rendering="geometricPrecision" stroke-miterlimit="1.45" shape-rendering="geometricPrecision" transform="matrix(1,0,0,1,-180,-150)" stroke-linecap="butt">
      <path fill="none" d="M900 239.5 L903.4442 232.8149 L910.6066 235.1066 L908.3149 227.9442 L915 224.5 L908.3149 221.0558 L910.6066 213.8934 L903.4442 216.1851 L900 209.5 L896.5558 216.1851 L889.3934 213.8934 L891.6851 221.0558 L885 224.5 L891.6851 227.9442 L889.3934 235.1066 L896.5558 232.8149 Z" fill-rule="evenodd" clip-path="url(#clipPath2)"/>
    </g>
    <g fill="white" text-rendering="geometricPrecision" shape-rendering="geometricPrecision" transform="matrix(1,0,0,1,-180,-150)" stroke="white">
      <circle r="15" clip-path="url(#clipPath2)" cx="750" cy="240" stroke="none"/>
    </g>
    <g text-rendering="geometricPrecision" stroke-miterlimit="1.45" stroke-width="3" shape-rendering="geometricPrecision" transform="matrix(1,0,0,1,-180,-150)" stroke-linecap="butt">
      <circle fill="none" r="15" clip-path="url(#clipPath2)" cx="750" cy="240"/>
      <path fill="none" d="M225 240 L271.25 240" clip-path="url(#clipPath2)" stroke="rgb(51,102,255)"/>
      <path fill="rgb(51,102,255)" d="M285 240 L270 232.5 L270 247.5 Z" clip-path="url(#clipPath2)" stroke="none"/>
      <path fill="none" d="M315 240 L361.25 240" clip-path="url(#clipPath2)" stroke="rgb(51,102,255)"/>
      <path fill="rgb(51,102,255)" d="M375 240 L360 232.5 L360 247.5 Z" clip-path="url(#clipPath2)" stroke="none"/>
      <path fill="none" d="M585 180 L631.25 180" clip-path="url(#clipPath2)" stroke="rgb(51,153,102)"/>
      <path fill="rgb(51,153,102)" d="M645 180 L630 172.5 L630 187.5 Z" clip-path="url(#clipPath2)" stroke="none"/>
      <path fill="none" d="M402.4807 231.6795 L456.0786 195.9476" clip-path="url(#clipPath2)" stroke="rgb(51,153,102)"/>
      <path fill="rgb(51,153,102)" d="M467.5193 188.3205 L450.8783 190.4006 L459.1988 202.8814 Z" clip-path="url(#clipPath2)" stroke="none"/>
      <path fill="none" d="M495 180 L541.25 180" clip-path="url(#clipPath2)" stroke="rgb(51,153,102)"/>
      <path fill="rgb(51,153,102)" d="M555 180 L540 172.5 L540 187.5 Z" clip-path="url(#clipPath2)" stroke="none"/>
      <path fill="none" d="M405 240 L451.25 240" clip-path="url(#clipPath2)" stroke="rgb(51,102,255)"/>
      <path fill="rgb(51,102,255)" d="M465 240 L450 232.5 L450 247.5 Z" clip-path="url(#clipPath2)" stroke="none"/>
      <path fill="none" d="M495 240 L721.25 240" clip-path="url(#clipPath2)" stroke="rgb(51,102,255)"/>
      <path fill="rgb(51,102,255)" d="M735 240 L720 232.5 L720 247.5 Z" clip-path="url(#clipPath2)" stroke="none"/>
      <path fill="none" d="M672.4808 188.3205 L726.0786 224.0524" clip-path="url(#clipPath2)" stroke="rgb(51,153,102)"/>
      <path fill="rgb(51,153,102)" d="M737.5192 231.6795 L729.1987 217.1186 L720.8782 229.5994 Z" clip-path="url(#clipPath2)" stroke="none"/>
    </g>
  </g>
</svg>
