<?xml version="1.0" encoding="UTF-8"?><svg xmlns="http://www.w3.org/2000/svg" xmlns:xlink="http://www.w3.org/1999/xlink" fill-opacity="1" color-rendering="auto" color-interpolation="auto" text-rendering="auto" stroke="black" stroke-linecap="square" width="515" stroke-miterlimit="10" shape-rendering="auto" stroke-opacity="1" fill="black" stroke-dasharray="none" font-weight="normal" stroke-width="1" height="76" font-family="'Dialog'" font-style="normal" stroke-linejoin="miter" font-size="12px" stroke-dashoffset="0" image-rendering="auto">
  <!--Generated by ySVG 2.5-->
  <defs id="genericDefs"/>
  <g>
    <defs id="defs1">
      <clipPath clipPathUnits="userSpaceOnUse" id="clipPath1">
        <path d="M0 0 L515 0 L515 76 L0 76 L0 0 Z"/>
      </clipPath>
      <clipPath clipPathUnits="userSpaceOnUse" id="clipPath2">
        <path d="M180 194 L695 194 L695 270 L180 270 L180 194 Z"/>
      </clipPath>
    </defs>
    <g fill="white" text-rendering="geometricPrecision" shape-rendering="geometricPrecision" transform="translate(-180,-194)" stroke="white">
      <rect x="180" width="515" height="76" y="194" clip-path="url(#clipPath2)" stroke="none"/>
    </g>
    <g fill="white" text-rendering="geometricPrecision" shape-rendering="geometricPrecision" transform="matrix(1,0,0,1,-180,-194)" stroke="white">
      <circle r="15" clip-path="url(#clipPath2)" cx="210" cy="240" stroke="none"/>
    </g>
    <g text-rendering="geometricPrecision" stroke-miterlimit="1.45" stroke-width="3" shape-rendering="geometricPrecision" transform="matrix(1,0,0,1,-180,-194)" stroke-linecap="butt">
      <circle fill="none" r="15" clip-path="url(#clipPath2)" cx="210" cy="240"/>
    </g>
    <g fill="white" text-rendering="geometricPrecision" shape-rendering="geometricPrecision" transform="matrix(1,0,0,1,-180,-194)" stroke="white">
      <circle r="15" clip-path="url(#clipPath2)" cx="300" cy="240" stroke="none"/>
    </g>
    <g text-rendering="geometricPrecision" stroke-miterlimit="1.45" stroke-width="3" shape-rendering="geometricPrecision" transform="matrix(1,0,0,1,-180,-194)" stroke-linecap="butt">
      <circle fill="none" r="15" clip-path="url(#clipPath2)" cx="300" cy="240"/>
    </g>
    <g fill="white" text-rendering="geometricPrecision" shape-rendering="geometricPrecision" transform="matrix(1,0,0,1,-180,-194)" stroke="white">
      <circle r="15" clip-path="url(#clipPath2)" cx="390" cy="240" stroke="none"/>
    </g>
    <g text-rendering="geometricPrecision" stroke-miterlimit="1.45" stroke-width="3" shape-rendering="geometricPrecision" transform="matrix(1,0,0,1,-180,-194)" stroke-linecap="butt">
      <circle fill="none" r="15" clip-path="url(#clipPath2)" cx="390" cy="240"/>
    </g>
    <g fill="white" text-rendering="geometricPrecision" shape-rendering="geometricPrecision" transform="matrix(1,0,0,1,-180,-194)" stroke="white">
      <rect x="420" width="120" height="30" y="225" clip-path="url(#clipPath2)" stroke="none"/>
    </g>
    <g stroke-linecap="butt" transform="matrix(1,0,0,1,-180,-194)" fill="rgb(51,102,255)" text-rendering="geometricPrecision" shape-rendering="geometricPrecision" stroke="rgb(51,102,255)" stroke-width="2" stroke-miterlimit="1.45">
      <rect fill="none" x="420" width="120" height="30" y="225" clip-path="url(#clipPath2)"/>
    </g>
    <g text-rendering="geometricPrecision" stroke-miterlimit="1.45" shape-rendering="geometricPrecision" font-family="sans-serif" transform="matrix(1,0,0,1,-180,-194)" stroke-linecap="butt">
      <text x="459.9844" xml:space="preserve" y="244.5352" clip-path="url(#clipPath2)" stroke="none">master</text>
    </g>
    <g fill="rgb(255,204,0)" text-rendering="geometricPrecision" shape-rendering="geometricPrecision" transform="matrix(1,0,0,1,-180,-194)" stroke="rgb(255,204,0)">
      <path d="M540 239.5 L543.4442 232.8149 L550.6066 235.1066 L548.3149 227.9442 L555 224.5 L548.3149 221.0558 L550.6066 213.8934 L543.4442 216.1851 L540 209.5 L536.5558 216.1851 L529.3934 213.8934 L531.6851 221.0558 L525 224.5 L531.6851 227.9442 L529.3934 235.1066 L536.5558 232.8149 Z" fill-rule="evenodd" clip-path="url(#clipPath2)" stroke="none"/>
    </g>
    <g text-rendering="geometricPrecision" stroke-miterlimit="1.45" shape-rendering="geometricPrecision" transform="matrix(1,0,0,1,-180,-194)" stroke-linecap="butt">
      <path fill="none" d="M540 239.5 L543.4442 232.8149 L550.6066 235.1066 L548.3149 227.9442 L555 224.5 L548.3149 221.0558 L550.6066 213.8934 L543.4442 216.1851 L540 209.5 L536.5558 216.1851 L529.3934 213.8934 L531.6851 221.0558 L525 224.5 L531.6851 227.9442 L529.3934 235.1066 L536.5558 232.8149 Z" fill-rule="evenodd" clip-path="url(#clipPath2)"/>
    </g>
    <g fill="white" text-rendering="geometricPrecision" shape-rendering="geometricPrecision" transform="matrix(1,0,0,1,-180,-194)" stroke="white">
      <rect x="560" width="120" height="30" y="225" clip-path="url(#clipPath2)" stroke="none"/>
    </g>
    <g stroke-linecap="butt" transform="matrix(1,0,0,1,-180,-194)" fill="rgb(51,153,102)" text-rendering="geometricPrecision" shape-rendering="geometricPrecision" stroke="rgb(51,153,102)" stroke-width="2" stroke-miterlimit="1.45">
      <rect fill="none" x="560" width="120" height="30" y="225" clip-path="url(#clipPath2)"/>
    </g>
    <g text-rendering="geometricPrecision" stroke-miterlimit="1.45" shape-rendering="geometricPrecision" font-family="sans-serif" transform="matrix(1,0,0,1,-180,-194)" stroke-linecap="butt">
      <text x="609.1455" xml:space="preserve" y="244.5352" clip-path="url(#clipPath2)" stroke="none">rwd</text>
    </g>
    <g stroke-linecap="butt" transform="matrix(1,0,0,1,-180,-194)" fill="rgb(51,102,255)" text-rendering="geometricPrecision" shape-rendering="geometricPrecision" stroke="rgb(51,102,255)" stroke-width="3" stroke-miterlimit="1.45">
      <path fill="none" d="M225 240 L271.25 240" clip-path="url(#clipPath2)"/>
      <path d="M285 240 L270 232.5 L270 247.5 Z" clip-path="url(#clipPath2)" stroke="none"/>
      <path fill="none" d="M315 240 L361.25 240" clip-path="url(#clipPath2)"/>
      <path d="M375 240 L360 232.5 L360 247.5 Z" clip-path="url(#clipPath2)" stroke="none"/>
    </g>
  </g>
</svg>
