<?xml version="1.0" encoding="UTF-8"?><svg xmlns="http://www.w3.org/2000/svg" xmlns:xlink="http://www.w3.org/1999/xlink" fill-opacity="1" color-rendering="auto" color-interpolation="auto" text-rendering="auto" stroke="black" stroke-linecap="square" width="705" stroke-miterlimit="10" shape-rendering="auto" stroke-opacity="1" fill="black" stroke-dasharray="none" font-weight="normal" stroke-width="1" height="360" font-family="'Dialog'" font-style="normal" stroke-linejoin="miter" font-size="12px" stroke-dashoffset="0" image-rendering="auto">
  <!--Generated by ySVG 2.5-->
  <defs id="genericDefs"/>
  <g>
    <defs id="defs1">
      <clipPath clipPathUnits="userSpaceOnUse" id="clipPath1">
        <path d="M0 0 L705 0 L705 360 L0 360 L0 0 Z"/>
      </clipPath>
      <clipPath clipPathUnits="userSpaceOnUse" id="clipPath2">
        <path d="M180 60 L885 60 L885 420 L180 420 L180 60 Z"/>
      </clipPath>
    </defs>
    <g fill="white" text-rendering="geometricPrecision" shape-rendering="geometricPrecision" transform="translate(-180,-60)" stroke="white">
      <rect x="180" width="705" height="360" y="60" clip-path="url(#clipPath2)" stroke="none"/>
    </g>
    <g fill="white" text-rendering="geometricPrecision" shape-rendering="geometricPrecision" transform="matrix(1,0,0,1,-180,-60)" stroke="white">
      <circle r="15" clip-path="url(#clipPath2)" cx="210" cy="240" stroke="none"/>
    </g>
    <g text-rendering="geometricPrecision" stroke-miterlimit="1.45" stroke-width="3" shape-rendering="geometricPrecision" transform="matrix(1,0,0,1,-180,-60)" stroke-linecap="butt">
      <circle fill="none" r="15" clip-path="url(#clipPath2)" cx="210" cy="240"/>
    </g>
    <g fill="white" text-rendering="geometricPrecision" shape-rendering="geometricPrecision" transform="matrix(1,0,0,1,-180,-60)" stroke="white">
      <circle r="15" clip-path="url(#clipPath2)" cx="300" cy="240" stroke="none"/>
    </g>
    <g text-rendering="geometricPrecision" stroke-miterlimit="1.45" stroke-width="3" shape-rendering="geometricPrecision" transform="matrix(1,0,0,1,-180,-60)" stroke-linecap="butt">
      <circle fill="none" r="15" clip-path="url(#clipPath2)" cx="300" cy="240"/>
    </g>
    <g fill="white" text-rendering="geometricPrecision" shape-rendering="geometricPrecision" transform="matrix(1,0,0,1,-180,-60)" stroke="white">
      <circle r="15" clip-path="url(#clipPath2)" cx="390" cy="240" stroke="none"/>
    </g>
    <g text-rendering="geometricPrecision" stroke-miterlimit="1.45" stroke-width="3" shape-rendering="geometricPrecision" transform="matrix(1,0,0,1,-180,-60)" stroke-linecap="butt">
      <circle fill="none" r="15" clip-path="url(#clipPath2)" cx="390" cy="240"/>
    </g>
    <g fill="white" text-rendering="geometricPrecision" shape-rendering="geometricPrecision" transform="matrix(1,0,0,1,-180,-60)" stroke="white">
      <circle r="15" clip-path="url(#clipPath2)" cx="480" cy="150" stroke="none"/>
    </g>
    <g text-rendering="geometricPrecision" stroke-miterlimit="1.45" stroke-width="3" shape-rendering="geometricPrecision" transform="matrix(1,0,0,1,-180,-60)" stroke-linecap="butt">
      <circle fill="none" r="15" clip-path="url(#clipPath2)" cx="480" cy="150"/>
    </g>
    <g fill="white" text-rendering="geometricPrecision" shape-rendering="geometricPrecision" transform="matrix(1,0,0,1,-180,-60)" stroke="white">
      <circle r="15" clip-path="url(#clipPath2)" cx="570" cy="150" stroke="none"/>
    </g>
    <g text-rendering="geometricPrecision" stroke-miterlimit="1.45" stroke-width="3" shape-rendering="geometricPrecision" transform="matrix(1,0,0,1,-180,-60)" stroke-linecap="butt">
      <circle fill="none" r="15" clip-path="url(#clipPath2)" cx="570" cy="150"/>
    </g>
    <g fill="white" text-rendering="geometricPrecision" shape-rendering="geometricPrecision" transform="matrix(1,0,0,1,-180,-60)" stroke="white">
      <circle r="15" clip-path="url(#clipPath2)" cx="660" cy="150" stroke="none"/>
    </g>
    <g text-rendering="geometricPrecision" stroke-miterlimit="1.45" stroke-width="3" shape-rendering="geometricPrecision" transform="matrix(1,0,0,1,-180,-60)" stroke-linecap="butt">
      <circle fill="none" r="15" clip-path="url(#clipPath2)" cx="660" cy="150"/>
    </g>
    <g fill="white" text-rendering="geometricPrecision" shape-rendering="geometricPrecision" transform="matrix(1,0,0,1,-180,-60)" stroke="white">
      <circle r="15" clip-path="url(#clipPath2)" cx="750" cy="150" stroke="none"/>
    </g>
    <g stroke-linecap="butt" transform="matrix(1,0,0,1,-180,-60)" fill="rgb(153,153,153)" text-rendering="geometricPrecision" shape-rendering="geometricPrecision" stroke="rgb(153,153,153)" stroke-width="3" stroke-miterlimit="1.45">
      <circle fill="none" r="15" clip-path="url(#clipPath2)" cx="750" cy="150"/>
    </g>
    <g fill="rgb(204,204,204)" text-rendering="geometricPrecision" shape-rendering="geometricPrecision" transform="matrix(1,0,0,1,-180,-60)" stroke="rgb(204,204,204)">
      <rect x="210" width="120" height="30" y="165" clip-path="url(#clipPath2)" stroke="none"/>
    </g>
    <g text-rendering="geometricPrecision" stroke-miterlimit="1.45" shape-rendering="geometricPrecision" font-family="sans-serif" transform="matrix(1,0,0,1,-180,-60)" stroke-linecap="butt">
      <text x="234.293" xml:space="preserve" y="184.5352" clip-path="url(#clipPath2)" stroke="none">Initialisation</text>
    </g>
    <g fill="rgb(204,204,204)" text-rendering="geometricPrecision" shape-rendering="geometricPrecision" transform="matrix(1,0,0,1,-180,-60)" stroke="rgb(204,204,204)">
      <rect x="430" width="120" height="30" y="225" clip-path="url(#clipPath2)" stroke="none"/>
    </g>
    <g text-rendering="geometricPrecision" stroke-miterlimit="1.45" shape-rendering="geometricPrecision" font-family="sans-serif" transform="matrix(1,0,0,1,-180,-60)" stroke-linecap="butt">
      <text x="454.8643" xml:space="preserve" y="244.5352" clip-path="url(#clipPath2)" stroke="none">Ajout footer</text>
    </g>
    <g fill="rgb(204,204,204)" text-rendering="geometricPrecision" shape-rendering="geometricPrecision" transform="matrix(1,0,0,1,-180,-60)" stroke="rgb(204,204,204)">
      <rect x="570" width="120" height="30" y="195" clip-path="url(#clipPath2)" stroke="none"/>
    </g>
    <g text-rendering="geometricPrecision" stroke-miterlimit="1.45" shape-rendering="geometricPrecision" font-family="sans-serif" transform="matrix(1,0,0,1,-180,-60)" stroke-linecap="butt">
      <text x="604.1279" xml:space="preserve" y="214.5352" clip-path="url(#clipPath2)" stroke="none">Site RWD</text>
    </g>
    <g fill="rgb(204,204,204)" text-rendering="geometricPrecision" shape-rendering="geometricPrecision" transform="matrix(1,0,0,1,-180,-60)" stroke="rgb(204,204,204)">
      <rect x="300" width="120" height="30" y="285" clip-path="url(#clipPath2)" stroke="none"/>
    </g>
    <g text-rendering="geometricPrecision" stroke-miterlimit="1.45" shape-rendering="geometricPrecision" font-family="sans-serif" transform="matrix(1,0,0,1,-180,-60)" stroke-linecap="butt">
      <text x="323.0713" xml:space="preserve" y="304.5352" clip-path="url(#clipPath2)" stroke="none">Création site</text>
    </g>
    <g fill="rgb(204,204,204)" text-rendering="geometricPrecision" shape-rendering="geometricPrecision" transform="matrix(1,0,0,1,-180,-60)" stroke="rgb(204,204,204)">
      <rect x="480" width="120" height="30" y="75" clip-path="url(#clipPath2)" stroke="none"/>
    </g>
    <g text-rendering="geometricPrecision" stroke-miterlimit="1.45" shape-rendering="geometricPrecision" font-family="sans-serif" transform="matrix(1,0,0,1,-180,-60)" stroke-linecap="butt">
      <text x="482.9385" xml:space="preserve" y="94.5352" clip-path="url(#clipPath2)" stroke="none">Changement thème</text>
    </g>
    <g fill="rgb(204,204,204)" text-rendering="geometricPrecision" shape-rendering="geometricPrecision" transform="matrix(1,0,0,1,-180,-60)" stroke="rgb(204,204,204)">
      <rect x="660" width="120" height="30" y="75" clip-path="url(#clipPath2)" stroke="none"/>
    </g>
    <g text-rendering="geometricPrecision" stroke-miterlimit="1.45" shape-rendering="geometricPrecision" font-family="sans-serif" transform="matrix(1,0,0,1,-180,-60)" stroke-linecap="butt">
      <text x="684.6182" xml:space="preserve" y="94.5352" clip-path="url(#clipPath2)" stroke="none">Refonte SEO</text>
    </g>
    <g fill="rgb(204,204,204)" text-rendering="geometricPrecision" shape-rendering="geometricPrecision" transform="matrix(1,0,0,1,-180,-60)" stroke="rgb(204,204,204)">
      <rect x="750" width="120" height="30" y="195" clip-path="url(#clipPath2)" stroke="none"/>
    </g>
    <g text-rendering="geometricPrecision" stroke-miterlimit="1.45" shape-rendering="geometricPrecision" font-family="sans-serif" transform="matrix(1,0,0,1,-180,-60)" stroke-linecap="butt">
      <text x="802.4062" xml:space="preserve" y="214.5352" clip-path="url(#clipPath2)" stroke="none">???</text>
    </g>
    <g fill="white" text-rendering="geometricPrecision" shape-rendering="geometricPrecision" transform="matrix(1,0,0,1,-180,-60)" stroke="white">
      <circle r="15" clip-path="url(#clipPath2)" cx="480" cy="330" stroke="none"/>
    </g>
    <g text-rendering="geometricPrecision" stroke-miterlimit="1.45" stroke-width="3" shape-rendering="geometricPrecision" transform="matrix(1,0,0,1,-180,-60)" stroke-linecap="butt">
      <circle fill="none" r="15" clip-path="url(#clipPath2)" cx="480" cy="330"/>
    </g>
    <g fill="white" text-rendering="geometricPrecision" shape-rendering="geometricPrecision" transform="matrix(1,0,0,1,-180,-60)" stroke="white">
      <circle r="15" clip-path="url(#clipPath2)" cx="570" cy="330" stroke="none"/>
    </g>
    <g text-rendering="geometricPrecision" stroke-miterlimit="1.45" stroke-width="3" shape-rendering="geometricPrecision" transform="matrix(1,0,0,1,-180,-60)" stroke-linecap="butt">
      <circle fill="none" r="15" clip-path="url(#clipPath2)" cx="570" cy="330"/>
    </g>
    <g fill="white" text-rendering="geometricPrecision" shape-rendering="geometricPrecision" transform="matrix(1,0,0,1,-180,-60)" stroke="white">
      <circle r="15" clip-path="url(#clipPath2)" cx="660" cy="330" stroke="none"/>
    </g>
    <g text-rendering="geometricPrecision" stroke-miterlimit="1.45" stroke-width="3" shape-rendering="geometricPrecision" transform="matrix(1,0,0,1,-180,-60)" stroke-linecap="butt">
      <circle fill="none" r="15" clip-path="url(#clipPath2)" cx="660" cy="330"/>
    </g>
    <g fill="white" text-rendering="geometricPrecision" shape-rendering="geometricPrecision" transform="matrix(1,0,0,1,-180,-60)" stroke="white">
      <circle r="15" clip-path="url(#clipPath2)" cx="750" cy="330" stroke="none"/>
    </g>
    <g stroke-linecap="butt" transform="matrix(1,0,0,1,-180,-60)" fill="rgb(153,153,153)" text-rendering="geometricPrecision" shape-rendering="geometricPrecision" stroke="rgb(153,153,153)" stroke-width="3" stroke-miterlimit="1.45">
      <circle fill="none" r="15" clip-path="url(#clipPath2)" cx="750" cy="330"/>
    </g>
    <g fill="rgb(204,204,204)" text-rendering="geometricPrecision" shape-rendering="geometricPrecision" transform="matrix(1,0,0,1,-180,-60)" stroke="rgb(204,204,204)">
      <rect x="570" width="120" height="30" y="255" clip-path="url(#clipPath2)" stroke="none"/>
    </g>
    <g text-rendering="geometricPrecision" stroke-miterlimit="1.45" shape-rendering="geometricPrecision" font-family="sans-serif" transform="matrix(1,0,0,1,-180,-60)" stroke-linecap="butt">
      <text x="579.9316" xml:space="preserve" y="274.5352" clip-path="url(#clipPath2)" stroke="none">Correction footer</text>
    </g>
    <g fill="rgb(204,204,204)" text-rendering="geometricPrecision" shape-rendering="geometricPrecision" transform="matrix(1,0,0,1,-180,-60)" stroke="rgb(204,204,204)">
      <rect x="480" width="120" height="30" y="375" clip-path="url(#clipPath2)" stroke="none"/>
    </g>
    <g text-rendering="geometricPrecision" stroke-miterlimit="1.45" shape-rendering="geometricPrecision" font-family="sans-serif" transform="matrix(1,0,0,1,-180,-60)" stroke-linecap="butt">
      <text x="492.1641" xml:space="preserve" y="394.5352" clip-path="url(#clipPath2)" stroke="none">Ajout navigation</text>
    </g>
    <g fill="rgb(204,204,204)" text-rendering="geometricPrecision" shape-rendering="geometricPrecision" transform="matrix(1,0,0,1,-180,-60)" stroke="rgb(204,204,204)">
      <rect x="660" width="120" height="30" y="375" clip-path="url(#clipPath2)" stroke="none"/>
    </g>
    <g text-rendering="geometricPrecision" stroke-miterlimit="1.45" shape-rendering="geometricPrecision" font-family="sans-serif" transform="matrix(1,0,0,1,-180,-60)" stroke-linecap="butt">
      <text x="689.1797" xml:space="preserve" y="394.5352" clip-path="url(#clipPath2)" stroke="none">Newsletter</text>
    </g>
    <g fill="rgb(204,204,204)" text-rendering="geometricPrecision" shape-rendering="geometricPrecision" transform="matrix(1,0,0,1,-180,-60)" stroke="rgb(204,204,204)">
      <rect x="750" width="120" height="30" y="255" clip-path="url(#clipPath2)" stroke="none"/>
    </g>
    <g text-rendering="geometricPrecision" stroke-miterlimit="1.45" shape-rendering="geometricPrecision" font-family="sans-serif" transform="matrix(1,0,0,1,-180,-60)" stroke-linecap="butt">
      <text x="802.4062" xml:space="preserve" y="274.5352" clip-path="url(#clipPath2)" stroke="none">???</text>
    </g>
    <g stroke-linecap="butt" transform="matrix(1,0,0,1,-180,-60)" fill="rgb(51,102,255)" text-rendering="geometricPrecision" shape-rendering="geometricPrecision" stroke="rgb(51,102,255)" stroke-width="3" stroke-miterlimit="1.45">
      <path fill="none" d="M225 240 L271.25 240" clip-path="url(#clipPath2)"/>
      <path d="M285 240 L270 232.5 L270 247.5 Z" clip-path="url(#clipPath2)" stroke="none"/>
      <path fill="none" d="M315 240 L361.25 240" clip-path="url(#clipPath2)"/>
      <path d="M375 240 L360 232.5 L360 247.5 Z" clip-path="url(#clipPath2)" stroke="none"/>
      <path fill="none" d="M400.6066 229.3934 L459.6707 170.3293" clip-path="url(#clipPath2)" stroke="rgb(51,153,102)"/>
      <path fill="rgb(51,153,102)" d="M469.3934 160.6066 L453.4835 165.9099 L464.0901 176.5165 Z" clip-path="url(#clipPath2)" stroke="none"/>
      <path fill="none" d="M495 150 L541.25 150" clip-path="url(#clipPath2)" stroke="rgb(51,153,102)"/>
      <path fill="rgb(51,153,102)" d="M555 150 L540 142.5 L540 157.5 Z" clip-path="url(#clipPath2)" stroke="none"/>
      <path fill="none" d="M585 150 L631.25 150" clip-path="url(#clipPath2)" stroke="rgb(51,153,102)"/>
      <path fill="rgb(51,153,102)" d="M645 150 L630 142.5 L630 157.5 Z" clip-path="url(#clipPath2)" stroke="none"/>
      <path fill="none" stroke-dasharray="18,6" d="M675 150 L721.25 150" clip-path="url(#clipPath2)" stroke="gray"/>
      <path fill="gray" stroke-dasharray="18,6" d="M735 150 L720 142.5 L720 157.5 Z" clip-path="url(#clipPath2)" stroke="none"/>
    </g>
    <g stroke-linecap="round" transform="matrix(1,0,0,1,-180,-60)" fill="silver" text-rendering="geometricPrecision" shape-rendering="geometricPrecision" stroke-dasharray="8,6,0,6" stroke="silver" stroke-width="2" stroke-miterlimit="1.45">
      <path fill="none" d="M220.6066 229.3934 L255 195" clip-path="url(#clipPath2)"/>
      <path fill="none" d="M405 240 L430 240" clip-path="url(#clipPath2)"/>
      <path fill="none" d="M580.6066 160.6066 L615 195" clip-path="url(#clipPath2)"/>
      <path fill="none" d="M310.6066 250.6066 L345 285" clip-path="url(#clipPath2)"/>
      <path fill="none" d="M490.6066 139.3934 L525 105" clip-path="url(#clipPath2)"/>
      <path fill="none" d="M670.6066 139.3934 L705 105" clip-path="url(#clipPath2)"/>
      <path fill="none" d="M760.6066 160.6066 L795 195" clip-path="url(#clipPath2)"/>
    </g>
    <g stroke-linecap="butt" transform="matrix(1,0,0,1,-180,-60)" fill="rgb(255,153,0)" text-rendering="geometricPrecision" shape-rendering="geometricPrecision" stroke="rgb(255,153,0)" stroke-width="3" stroke-miterlimit="1.45">
      <path fill="none" d="M400.6066 250.6066 L459.6707 309.6707" clip-path="url(#clipPath2)"/>
      <path d="M469.3934 319.3934 L464.0901 303.4835 L453.4835 314.0901 Z" clip-path="url(#clipPath2)" stroke="none"/>
      <path fill="none" d="M495 330 L541.25 330" clip-path="url(#clipPath2)"/>
      <path d="M555 330 L540 322.5 L540 337.5 Z" clip-path="url(#clipPath2)" stroke="none"/>
      <path fill="none" d="M585 330 L631.25 330" clip-path="url(#clipPath2)"/>
      <path d="M645 330 L630 322.5 L630 337.5 Z" clip-path="url(#clipPath2)" stroke="none"/>
      <path fill="none" stroke-dasharray="18,6" d="M675 330 L721.25 330" clip-path="url(#clipPath2)" stroke="gray"/>
      <path fill="gray" stroke-dasharray="18,6" d="M735 330 L720 322.5 L720 337.5 Z" clip-path="url(#clipPath2)" stroke="none"/>
    </g>
    <g stroke-linecap="round" transform="matrix(1,0,0,1,-180,-60)" fill="silver" text-rendering="geometricPrecision" shape-rendering="geometricPrecision" stroke-dasharray="8,6,0,6" stroke="silver" stroke-width="2" stroke-miterlimit="1.45">
      <path fill="none" d="M580.6066 319.3934 L615 285" clip-path="url(#clipPath2)"/>
      <path fill="none" d="M490.6066 340.6066 L525 375" clip-path="url(#clipPath2)"/>
      <path fill="none" d="M670.6066 340.6066 L705 375" clip-path="url(#clipPath2)"/>
      <path fill="none" d="M760.6066 319.3934 L795 285" clip-path="url(#clipPath2)"/>
    </g>
  </g>
</svg>
