<?xml version="1.0" encoding="UTF-8"?><svg xmlns="http://www.w3.org/2000/svg" xmlns:xlink="http://www.w3.org/1999/xlink" fill-opacity="1" color-rendering="auto" color-interpolation="auto" text-rendering="auto" stroke="black" stroke-linecap="square" width="482" stroke-miterlimit="10" shape-rendering="auto" stroke-opacity="1" fill="black" stroke-dasharray="none" font-weight="normal" stroke-width="1" height="332" font-family="'Dialog'" font-style="normal" stroke-linejoin="miter" font-size="12px" stroke-dashoffset="0" image-rendering="auto">
  <!--Generated by ySVG 2.5-->
  <defs id="genericDefs"/>
  <g>
    <defs id="defs1">
      <clipPath clipPathUnits="userSpaceOnUse" id="clipPath1">
        <path d="M0 0 L482 0 L482 332 L0 332 L0 0 Z"/>
      </clipPath>
      <clipPath clipPathUnits="userSpaceOnUse" id="clipPath2">
        <path d="M187 157 L428 157 L428 323 L187 323 L187 157 Z"/>
      </clipPath>
    </defs>
    <g fill="white" text-rendering="geometricPrecision" shape-rendering="geometricPrecision" transform="matrix(2,0,0,2,-374,-314)" stroke="white">
      <circle r="15" clip-path="url(#clipPath2)" cx="210" cy="240" stroke="none"/>
    </g>
    <g text-rendering="geometricPrecision" stroke-miterlimit="1.45" stroke-width="3" shape-rendering="geometricPrecision" transform="matrix(2,0,0,2,-374,-314)" stroke-linecap="butt">
      <circle fill="none" r="15" clip-path="url(#clipPath2)" cx="210" cy="240"/>
    </g>
    <g fill="white" text-rendering="geometricPrecision" shape-rendering="geometricPrecision" transform="matrix(2,0,0,2,-374,-314)" stroke="white">
      <circle r="15" clip-path="url(#clipPath2)" cx="300" cy="240" stroke="none"/>
    </g>
    <g text-rendering="geometricPrecision" stroke-miterlimit="1.45" stroke-width="3" shape-rendering="geometricPrecision" transform="matrix(2,0,0,2,-374,-314)" stroke-linecap="butt">
      <circle fill="none" r="15" clip-path="url(#clipPath2)" cx="300" cy="240"/>
    </g>
    <g fill="rgb(204,204,204)" text-rendering="geometricPrecision" shape-rendering="geometricPrecision" transform="matrix(2,0,0,2,-374,-314)" stroke="rgb(204,204,204)">
      <rect x="210" width="120" height="30" y="165" clip-path="url(#clipPath2)" stroke="none"/>
    </g>
    <g text-rendering="geometricPrecision" stroke-miterlimit="1.45" shape-rendering="geometricPrecision" font-family="sans-serif" transform="matrix(2,0,0,2,-374,-314)" stroke-linecap="butt">
      <text x="234.293" xml:space="preserve" y="184.5352" clip-path="url(#clipPath2)" stroke="none">Initialisation</text>
    </g>
    <g fill="rgb(204,204,204)" text-rendering="geometricPrecision" shape-rendering="geometricPrecision" transform="matrix(2,0,0,2,-374,-314)" stroke="rgb(204,204,204)">
      <rect x="300" width="120" height="30" y="285" clip-path="url(#clipPath2)" stroke="none"/>
    </g>
    <g text-rendering="geometricPrecision" stroke-miterlimit="1.45" shape-rendering="geometricPrecision" font-family="sans-serif" transform="matrix(2,0,0,2,-374,-314)" stroke-linecap="butt">
      <text x="323.0713" xml:space="preserve" y="304.5352" clip-path="url(#clipPath2)" stroke="none">Création site</text>
    </g>
    <g stroke-linecap="butt" transform="matrix(2,0,0,2,-374,-314)" fill="rgb(51,102,255)" text-rendering="geometricPrecision" shape-rendering="geometricPrecision" stroke="rgb(51,102,255)" stroke-width="3" stroke-miterlimit="1.45">
      <path fill="none" d="M225 240 L271.25 240" clip-path="url(#clipPath2)"/>
      <path d="M285 240 L270 232.5 L270 247.5 Z" clip-path="url(#clipPath2)" stroke="none"/>
    </g>
    <g stroke-linecap="round" transform="matrix(2,0,0,2,-374,-314)" fill="silver" text-rendering="geometricPrecision" shape-rendering="geometricPrecision" stroke-dasharray="8,6,0,6" stroke="silver" stroke-width="2" stroke-miterlimit="1.45">
      <path fill="none" d="M220.6066 229.3934 L255 195" clip-path="url(#clipPath2)"/>
      <path fill="none" d="M310.6066 250.6066 L345 285" clip-path="url(#clipPath2)"/>
    </g>
  </g>
</svg>
